<?xml version="1.0" encoding="UTF-8"?><svg xmlns="http://www.w3.org/2000/svg" viewBox="0 0 705.79 163.34"><defs><style>.d{fill:#fff;}</style></defs><g id="a"/><g id="b"><g id="c"><g><path class="d" d="M0,102.9V58.49c35.21-1.96,49.69-12.13,49.69-41.08V0H115.81V17.41c0,28.95,14.87,39.12,50.08,41.08v44.41c-48.71,0-70.42-3.72-99.57-22.69l-6.85,3.52c4.5,3.33,10.37,6.26,16.82,9-21.71,6.46-44.41,10.37-76.29,10.17Zm165.88,57.71H0v-43.43H52.82v-15.45h60.25v15.45h52.82v43.43Z"/><path class="d" d="M179.97,57.51V0h54.58V9.78h56.73V0h54.58V74.33H196.79c-11.74,0-16.82-5.09-16.82-16.82Zm62.21,57.12v-3.52h-62.21v-32.47h165.88v32.47h-44.99v13.3c-15.65,2.74-35.02,3.33-48.9,1.17-6.06-.98-9.78-4.69-9.78-10.95Zm-61.23,.98h56.34c-1.37,10.17,5.48,15.06,24.45,15.26,31.49,.39,55.95-1.57,84.12-8.61v32.08c-25.82,6.85-50.86,9-84.12,9-63.77,0-84.7-11.74-80.79-47.73Zm60.64-81.77l-2.15,5.87c15.06,4.69,32.86,6.46,47.54,6.46v-5.87c-14.67,0-30.71-2.35-45.38-6.46Z"/><path class="d" d="M359.94,102.9V58.49c35.21-1.96,49.69-12.13,49.69-41.08V0h66.12V17.41c0,28.95,14.87,39.12,50.08,41.08v44.41c-48.71,0-70.42-3.72-99.57-22.69l-6.85,3.52c4.5,3.33,10.37,6.26,16.82,9-21.71,6.46-44.41,10.37-76.29,10.17Zm165.88,57.71h-165.88v-43.43h52.82v-15.45h60.25v15.45h52.82v43.43Z"/><path class="d" d="M539.91,57.51V0h54.58V9.78h56.73V0h54.58V74.33h-149.06c-11.74,0-16.82-5.09-16.82-16.82Zm62.21,57.12v-3.52h-62.21v-32.47h165.88v32.47h-44.99v13.3c-15.65,2.74-35.02,3.33-48.9,1.17-6.06-.98-9.78-4.69-9.78-10.95Zm-61.23,.98h56.34c-1.37,10.17,5.48,15.06,24.45,15.26,31.49,.39,55.95-1.57,84.12-8.61v32.08c-25.82,6.85-50.86,9-84.12,9-63.77,0-84.7-11.74-80.79-47.73Zm60.64-81.77l-2.15,5.87c15.06,4.69,32.86,6.46,47.54,6.46v-5.87c-14.67,0-30.71-2.35-45.38-6.46Z"/></g></g></g></svg>