<svg width="14" height="20" viewBox="0 0 14 20" fill="none" xmlns="http://www.w3.org/2000/svg">
<path d="M0.5 7C0.5 3.40614 3.40614 0.5 7 0.5C10.5939 0.5 13.5 3.40614 13.5 7C13.5 8.94021 12.4591 11.3197 11.1343 13.5414C9.8221 15.742 8.28314 17.7042 7.38542 18.7905C7.18526 19.03 6.82421 19.0298 6.62424 18.7901C5.72217 17.7046 4.18047 15.7421 2.86684 13.5412C1.54084 11.3196 0.5 8.94017 0.5 7ZM4 7C4 8.65614 5.34386 10 7 10C8.65614 10 10 8.65614 10 7C10 5.34386 8.65614 4 7 4C5.34386 4 4 5.34386 4 7Z" fill="#87E0AC" stroke="#047734"/>
</svg>
