<svg width="37" height="50" viewBox="0 0 37 50" fill="none" xmlns="http://www.w3.org/2000/svg">
<path d="M1.14435 17.8749C1.14435 8.27948 8.90455 0.519286 18.5 0.519286C28.0954 0.519286 35.8556 8.27948 35.8556 17.8749C35.8556 23.048 33.103 29.2637 29.725 34.9286C26.3579 40.5752 22.4153 45.6007 20.1215 48.3761C19.279 49.3862 17.7454 49.3859 16.9033 48.3754C14.5973 45.6005 10.6483 40.575 7.27804 34.9284C3.89693 29.2636 1.14435 23.048 1.14435 17.8749ZM11.7098 17.8749C11.7098 21.6232 14.7517 24.6651 18.5 24.6651C22.2483 24.6651 25.2902 21.6232 25.2902 17.8749C25.2902 14.1266 22.2483 11.0847 18.5 11.0847C14.7517 11.0847 11.7098 14.1266 11.7098 17.8749Z" fill="#FF6D6A" stroke="#9C4341" stroke-width="0.872068"/>
</svg>
