<svg width="38" height="53" viewBox="0 0 38 53" fill="none" xmlns="http://www.w3.org/2000/svg">
<path d="M0.833332 18.9999C0.833332 8.95606 8.95614 0.833252 19 0.833252C29.0439 0.833252 37.1667 8.95606 37.1667 18.9999C37.1667 24.4151 34.2841 30.9279 30.7406 36.8705C27.2095 42.792 23.0746 48.0627 20.6686 50.9739C19.8018 52.0131 18.2245 52.013 17.3579 50.9737C14.9392 48.0633 10.7973 42.7923 7.26267 36.8703C3.71584 30.9279 0.833332 24.4151 0.833332 18.9999ZM11.8333 18.9999C11.8333 22.9561 15.0439 26.1666 19 26.1666C22.9561 26.1666 26.1667 22.9561 26.1667 18.9999C26.1667 15.0438 22.9561 11.8333 19 11.8333C15.0439 11.8333 11.8333 15.0438 11.8333 18.9999Z" fill="#FF0000" stroke="#047734"/>
</svg>
