<svg width="48" height="48" viewBox="0 0 48 48" fill="none" xmlns="http://www.w3.org/2000/svg">
<circle cx="24" cy="24" r="23.5" fill="white" stroke="#87E0AC"/>
<g clip-path="url(#clip0_1532_23446)">
<path d="M24 28.1816C25.5062 28.1816 26.7273 26.9606 26.7273 25.4543C26.7273 23.9481 25.5062 22.7271 24 22.7271C22.4938 22.7271 21.2727 23.9481 21.2727 25.4543C21.2727 26.9606 22.4938 28.1816 24 28.1816Z" fill="#87E0AC"/>
<path d="M31.2727 18.182H28.3909L27.2636 16.9547C26.9273 16.582 26.4364 16.3638 25.9273 16.3638H22.0727C21.5636 16.3638 21.0727 16.582 20.7273 16.9547L19.6091 18.182H16.7273C15.7273 18.182 14.9091 19.0001 14.9091 20.0001V30.9092C14.9091 31.9092 15.7273 32.7274 16.7273 32.7274H31.2727C32.2727 32.7274 33.0909 31.9092 33.0909 30.9092V20.0001C33.0909 19.0001 32.2727 18.182 31.2727 18.182ZM24 30.0001C21.4909 30.0001 19.4545 27.9638 19.4545 25.4547C19.4545 22.9456 21.4909 20.9092 24 20.9092C26.5091 20.9092 28.5455 22.9456 28.5455 25.4547C28.5455 27.9638 26.5091 30.0001 24 30.0001Z" fill="#87E0AC"/>
</g>
<defs>
<clipPath id="clip0_1532_23446">
<rect width="21.8182" height="21.8182" fill="white" transform="translate(13.0908 14.5459)"/>
</clipPath>
</defs>
</svg>
