<svg width="48" height="48" viewBox="0 0 48 48" fill="none" xmlns="http://www.w3.org/2000/svg">
<circle cx="24" cy="24" r="24" fill="#87E0AC"/>
<g clip-path="url(#clip0_1167_16024)">
<path d="M24 28.1821C25.5062 28.1821 26.7273 26.961 26.7273 25.4548C26.7273 23.9486 25.5062 22.7275 24 22.7275C22.4937 22.7275 21.2727 23.9486 21.2727 25.4548C21.2727 26.961 22.4937 28.1821 24 28.1821Z" fill="white"/>
<path d="M31.2727 18.1815H28.3909L27.2636 16.9542C26.9272 16.5815 26.4363 16.3633 25.9272 16.3633H22.0727C21.5636 16.3633 21.0727 16.5815 20.7272 16.9542L19.6091 18.1815H16.7272C15.7272 18.1815 14.9091 18.9996 14.9091 19.9996V30.9087C14.9091 31.9087 15.7272 32.7269 16.7272 32.7269H31.2727C32.2727 32.7269 33.0909 31.9087 33.0909 30.9087V19.9996C33.0909 18.9996 32.2727 18.1815 31.2727 18.1815ZM24 29.9996C21.4909 29.9996 19.4545 27.9633 19.4545 25.4542C19.4545 22.9451 21.4909 20.9087 24 20.9087C26.5091 20.9087 28.5454 22.9451 28.5454 25.4542C28.5454 27.9633 26.5091 29.9996 24 29.9996Z" fill="white"/>
</g>
<defs>
<clipPath id="clip0_1167_16024">
<rect width="21.8182" height="21.8182" fill="white" transform="translate(13.0908 14.5459)"/>
</clipPath>
</defs>
</svg>
