<svg width="32" height="32" viewBox="0 0 32 32" fill="none" xmlns="http://www.w3.org/2000/svg">
<path d="M16.6313 3.24393C13.7001 0.312678 9.31051 -0.285239 5.78135 1.43559L11.0751 6.72934C11.6438 7.29809 11.6438 8.21684 11.0751 8.78559L8.75635 11.1043C8.1876 11.6877 7.26885 11.6877 6.7001 11.1043L1.40635 5.81059C-0.299904 9.35434 0.298013 13.7148 3.22926 16.646C5.94176 19.3585 9.90843 20.0731 13.2772 18.8043L24.8855 30.4127C26.3876 31.9148 28.8084 31.9148 30.2959 30.4127C31.798 28.9106 31.798 26.4898 30.2959 25.0023L18.7459 13.4377C20.0876 10.0252 19.3876 6.00018 16.6313 3.24393Z" fill="white"/>
</svg>
