<?xml version="1.0" encoding="UTF-8"?><svg xmlns="http://www.w3.org/2000/svg" xmlns:xlink="http://www.w3.org/1999/xlink" viewBox="0 0 403.73 367.62"><defs><style>.k{fill:#f7941c;}.l{fill:#ede57a;}.m{fill:#87e0ac;}.n{fill:url(#j);}.n,.o,.p,.q,.r,.s,.t{mix-blend-mode:multiply;}.o{fill:url(#e);}.o,.p{opacity:.23;}.p{fill:url(#d);}.q{fill:url(#i);}.q,.r,.s,.t{opacity:.44;}.r{fill:url(#h);}.s{fill:url(#g);}.t{fill:url(#f);}.u{isolation:isolate;}</style><linearGradient id="d" x1="107.97" y1="-744.44" x2="182.66" y2="-742.94" gradientTransform="translate(275.7 847.28) rotate(-161.42) scale(1 -1)" gradientUnits="userSpaceOnUse"><stop offset=".49" stop-color="#fff"/><stop offset=".55" stop-color="#fafafa"/><stop offset=".61" stop-color="#ededed"/><stop offset=".68" stop-color="#d8d8d8"/><stop offset=".74" stop-color="#bababa"/><stop offset=".81" stop-color="#939393"/><stop offset=".88" stop-color="#636363"/><stop offset=".95" stop-color="#2c2c2c"/><stop offset="1" stop-color="#000"/></linearGradient><linearGradient id="e" x1="222.6" y1="-700.21" x2="273.77" y2="-699.18" xlink:href="#d"/><linearGradient id="f" x1="-52.32" y1="127.91" x2="60.67" y2="127.91" gradientTransform="translate(85.62 25.76)" gradientUnits="userSpaceOnUse"><stop offset="0" stop-color="#e60012"/><stop offset=".42" stop-color="#fffffe" stop-opacity=".47"/><stop offset=".46" stop-color="#fffffe" stop-opacity=".44"/><stop offset=".46" stop-color="#fff" stop-opacity=".44"/><stop offset="1" stop-color="#ff6d6a"/></linearGradient><linearGradient id="g" x1="44.4" y1="125.9" x2="157.38" y2="125.9" gradientTransform="translate(85.62 25.76)" gradientUnits="userSpaceOnUse"><stop offset="0" stop-color="#f79a2a" stop-opacity=".97"/><stop offset=".42" stop-color="#fffffe" stop-opacity=".47"/><stop offset=".46" stop-color="#fffffe" stop-opacity=".44"/><stop offset=".46" stop-color="#fff" stop-opacity=".44"/><stop offset="1" stop-color="#f7941c"/></linearGradient><linearGradient id="h" x1="153.91" x2="266.9" xlink:href="#f"/><linearGradient id="i" x1="0" y1="258.34" x2="403.29" y2="258.34" gradientTransform="matrix(1, 0, 0, 1, 0, 0)" gradientUnits="userSpaceOnUse"><stop offset=".51" stop-color="#fff"/><stop offset=".59" stop-color="#fafdfb"/><stop offset=".69" stop-color="#edfaf3"/><stop offset=".78" stop-color="#d8f5e4"/><stop offset=".87" stop-color="#baedcf"/><stop offset=".97" stop-color="#94e3b5"/><stop offset="1" stop-color="#87e0ac"/></linearGradient><linearGradient id="j" x1="-3453.73" y1="330.04" x2="-3453.22" y2="382.18" gradientTransform="translate(3648.96 -163.61)" gradientUnits="userSpaceOnUse"><stop offset=".51" stop-color="#fff"/><stop offset=".57" stop-color="#fefdfa" stop-opacity=".99"/><stop offset=".63" stop-color="#fef8ed" stop-opacity=".96"/><stop offset=".69" stop-color="#fdefd8" stop-opacity=".91"/><stop offset=".75" stop-color="#fbe3ba" stop-opacity=".85"/><stop offset=".82" stop-color="#f9d393" stop-opacity=".76"/><stop offset=".89" stop-color="#f7c063" stop-opacity=".66"/><stop offset=".95" stop-color="#f5aa2c" stop-opacity=".54"/><stop offset="1" stop-color="#f39800" stop-opacity=".44"/></linearGradient></defs><g class="u"><g id="a"/><g id="b"><g id="c"><g><path class="m" d="M315.33,76.57c3.46-10.3,11.08-18.02,20.36-21.95-5.02-8.73-6.43-19.49-2.96-29.79,6.09-18.12,25.03-28.28,43.27-23.76l-57.94,172.31c-17.26-7.42-26.21-26.96-20.12-45.07,3.46-10.3,11.08-18.02,20.36-21.95-5.02-8.73-6.43-19.49-2.96-29.79Z"/><path class="m" d="M378.89,1.9c19.08,6.41,29.34,27.08,22.93,46.16-3.46,10.3-11.08,18.02-20.36,21.95,5.02,8.73,6.43,19.49,2.96,29.79-3.46,10.3-11.08,18.02-20.36,21.95,5.02,8.73,6.43,19.49,2.96,29.79-6.41,19.08-27.08,29.34-46.16,22.93-.96-.32-1.89-.69-2.81-1.09L375.99,1.07c.97,.24,1.93,.51,2.89,.83Z"/><path class="p" d="M378.89,1.9c19.08,6.41,29.34,27.08,22.93,46.16-3.46,10.3-11.08,18.02-20.36,21.95,5.02,8.73,6.43,19.49,2.96,29.79-3.46,10.3-11.08,18.02-20.36,21.95,5.02,8.73,6.43,19.49,2.96,29.79-6.41,19.08-27.08,29.34-46.16,22.93-.96-.32-1.89-.69-2.81-1.09L375.99,1.07c.97,.24,1.93,.51,2.89,.83Z"/><path class="m" d="M222.59,91.63c2.37-7.06,7.59-12.35,13.95-15.03-3.44-5.98-4.4-13.35-2.03-20.41,4.17-12.41,17.15-19.37,29.64-16.28l-39.69,118.04c-11.82-5.08-17.96-18.47-13.78-30.88,2.37-7.06,7.59-12.35,13.95-15.03-3.44-5.98-4.4-13.35-2.03-20.41Z"/><path class="m" d="M266.13,40.48c13.07,4.39,20.1,18.55,15.71,31.62-2.37,7.06-7.59,12.35-13.95,15.03,3.44,5.98,4.4,13.35,2.03,20.41-2.37,7.06-7.59,12.35-13.95,15.03,3.44,5.98,4.4,13.35,2.03,20.41-4.39,13.07-18.55,20.1-31.62,15.71-.66-.22-1.3-.47-1.92-.74l39.69-118.04c.66,.16,1.32,.35,1.98,.57Z"/><path class="o" d="M266.13,40.48c13.07,4.39,20.1,18.55,15.71,31.62-2.37,7.06-7.59,12.35-13.95,15.03,3.44,5.98,4.4,13.35,2.03,20.41-2.37,7.06-7.59,12.35-13.95,15.03,3.44,5.98,4.4,13.35,2.03,20.41-4.39,13.07-18.55,20.1-31.62,15.71-.66-.22-1.3-.47-1.92-.74l39.69-118.04c.66,.16,1.32,.35,1.98,.57Z"/><ellipse class="k" cx="93.27" cy="143.05" rx="59.96" ry="78.51"/><path class="t" d="M105.28,200.99c-33.12,0-59.96-35.15-59.96-78.51,0-13.26,2.51-25.74,6.94-36.69-11.66,14.32-18.95,34.68-18.95,57.27,0,43.36,26.85,78.51,59.96,78.51,22.99,0,42.96-16.95,53.02-41.82-10.72,13.17-25.15,21.24-41.01,21.24Z"/><ellipse class="l" cx="189.99" cy="141.04" rx="59.96" ry="78.51"/><path class="s" d="M202,198.98c-33.12,0-59.96-35.15-59.96-78.51,0-13.26,2.51-25.74,6.94-36.69-11.66,14.32-18.95,34.68-18.95,57.27,0,43.36,26.85,78.51,59.96,78.51,22.99,0,42.96-16.95,53.02-41.82-10.72,13.17-25.15,21.24-41.01,21.24Z"/><ellipse class="k" cx="299.5" cy="143.05" rx="59.96" ry="78.51"/><path class="r" d="M311.51,200.99c-33.12,0-59.96-35.15-59.96-78.51,0-13.26,2.51-25.74,6.94-36.69-11.66,14.32-18.95,34.68-18.95,57.27,0,43.36,26.85,78.51,59.96,78.51,22.99,0,42.96-16.95,53.02-41.82-10.72,13.17-25.15,21.24-41.01,21.24Z"/><path class="m" d="M379.35,153.1c-.49-3.15-5.61-4.98-9.91-3.56-38.1,12.64-103.47,20.98-177.73,20.98-63.34,0-120.22-6.07-159.22-15.7-7.39-1.82-15.36,1.52-15.95,6.7L.33,303.45c-2.16,18.92,6.27,37.6,22.09,48.2,14.72,9.86,35.21,15.97,57.86,15.97h243.16c22.42,0,42.71-5.99,57.4-15.66,16.55-10.91,24.89-30.75,21.81-50.33l-23.31-148.53Zm-120.42,50.86c0,9.59-7.77,17.37-17.37,17.37h-91.94c-9.59,0-17.37-7.77-17.37-17.37h0c0-9.59,7.77-17.37,17.37-17.37h91.94c9.59,0,17.37,7.77,17.37,17.37h0Z"/><path class="q" d="M379.35,153.1c-.49-3.15-5.61-4.98-9.91-3.56-38.1,12.64-103.47,20.98-177.73,20.98-63.34,0-120.22-6.07-159.22-15.7-7.39-1.82-15.36,1.52-15.95,6.7L.33,303.45c-2.16,18.92,6.27,37.6,22.09,48.2,14.72,9.86,35.21,15.97,57.86,15.97h243.16c22.42,0,42.71-5.99,57.4-15.66,16.55-10.91,24.89-30.75,21.81-50.33l-23.31-148.53Zm-120.42,50.86c0,9.59-7.77,17.37-17.37,17.37h-91.94c-9.59,0-17.37-7.77-17.37-17.37h0c0-9.59,7.77-17.37,17.37-17.37h91.94c9.59,0,17.37,7.77,17.37,17.37h0Z"/><rect class="k" x="132.26" y="186.59" width="126.67" height="34.73" rx="17.37" ry="17.37"/><rect class="n" x="132.26" y="186.59" width="126.67" height="34.73" rx="17.37" ry="17.37" transform="translate(391.19 407.92) rotate(180)"/></g></g></g></g></svg>