<svg width="52" height="52" viewBox="0 0 52 52" fill="none" xmlns="http://www.w3.org/2000/svg">
<path d="M26.0001 0.166626C11.7401 0.166626 0.166748 11.74 0.166748 26C0.166748 40.26 11.7401 51.8333 26.0001 51.8333C40.2601 51.8333 51.8334 40.26 51.8334 26C51.8334 11.74 40.2601 0.166626 26.0001 0.166626ZM26.0001 28.5833C24.5793 28.5833 23.4167 27.4208 23.4167 26V15.6666C23.4167 14.2458 24.5793 13.0833 26.0001 13.0833C27.4209 13.0833 28.5834 14.2458 28.5834 15.6666V26C28.5834 27.4208 27.4209 28.5833 26.0001 28.5833ZM28.5834 38.9166H23.4167V33.75H28.5834V38.9166Z" fill="#87E0AC"/>
</svg>
