<?xml version="1.0" encoding="UTF-8"?><svg xmlns="http://www.w3.org/2000/svg" xmlns:xlink="http://www.w3.org/1999/xlink" viewBox="0 0 403.29 314.86"><defs><style>.g{fill:#ff6d6a;}.h{fill:#87e0ac;}.i{fill:url(#e);}.i,.j,.k{mix-blend-mode:multiply;}.j{fill:url(#f);}.k{fill:url(#d);opacity:.44;}.l{isolation:isolate;}</style><linearGradient id="d" x1="0" y1="205.57" x2="403.29" y2="205.57" gradientTransform="matrix(1, 0, 0, 1, 0, 0)" gradientUnits="userSpaceOnUse"><stop offset=".51" stop-color="#fff"/><stop offset=".59" stop-color="#fafdfb"/><stop offset=".69" stop-color="#edfaf3"/><stop offset=".78" stop-color="#d8f5e4"/><stop offset=".87" stop-color="#baedcf"/><stop offset=".97" stop-color="#94e3b5"/><stop offset="1" stop-color="#87e0ac"/></linearGradient><linearGradient id="e" x1="7.73" y1="73.14" x2="383.24" y2="73.14" gradientTransform="matrix(1, 0, 0, 1, 0, 0)" gradientUnits="userSpaceOnUse"><stop offset="0" stop-color="#e82391"/><stop offset=".1" stop-color="#ec4aa4"/><stop offset=".33" stop-color="#f6abd5"/><stop offset=".51" stop-color="#fff"/><stop offset=".55" stop-color="#fefafc"/><stop offset=".59" stop-color="#fdedf6"/><stop offset=".63" stop-color="#fad8eb"/><stop offset=".67" stop-color="#f7badc"/><stop offset=".71" stop-color="#f393c8"/><stop offset=".75" stop-color="#ee63b1"/><stop offset=".8" stop-color="#e82c95"/><stop offset=".83" stop-color="#e4007f"/></linearGradient><linearGradient id="f" x1="-5942.56" y1="282.77" x2="-5942.04" y2="334.91" gradientTransform="translate(6137.78 -169.16)" gradientUnits="userSpaceOnUse"><stop offset=".51" stop-color="#fff"/><stop offset=".57" stop-color="#fefafc"/><stop offset=".63" stop-color="#fdedf6"/><stop offset=".69" stop-color="#fad8eb"/><stop offset=".75" stop-color="#f7badc"/><stop offset=".82" stop-color="#f393c8"/><stop offset=".89" stop-color="#ee63b1"/><stop offset=".95" stop-color="#e82c95"/><stop offset="1" stop-color="#e4007f"/></linearGradient></defs><g class="l"><g id="a"/><g id="b"><g id="c"><g><rect class="g" x="132.15" y="133.76" width="126.67" height="34.73" rx="17.37" ry="17.37"/><path class="h" d="M379.35,100.34c-.49-3.15-5.61-4.98-9.91-3.56-38.1,12.64-103.47,20.98-177.73,20.98-63.34,0-120.22-6.07-159.22-15.7-7.39-1.82-15.36,1.52-15.95,6.7L.33,250.69c-2.16,18.92,6.27,37.6,22.09,48.2,14.72,9.86,35.21,15.97,57.86,15.97h243.16c22.42,0,42.71-5.99,57.4-15.66,16.55-10.91,24.89-30.75,21.81-50.33l-23.31-148.53Zm-120.42,50.86c0,9.59-7.77,17.37-17.37,17.37h-91.94c-9.59,0-17.37-7.77-17.37-17.37h0c0-9.59,7.77-17.37,17.37-17.37h91.94c9.59,0,17.37,7.77,17.37,17.37h0Z"/><path class="k" d="M379.35,100.34c-.49-3.15-5.61-4.98-9.91-3.56-38.1,12.64-103.47,20.98-177.73,20.98-63.34,0-120.22-6.07-159.22-15.7-7.39-1.82-15.36,1.52-15.95,6.7L.33,250.69c-2.16,18.92,6.27,37.6,22.09,48.2,14.72,9.86,35.21,15.97,57.86,15.97h243.16c22.42,0,42.71-5.99,57.4-15.66,16.55-10.91,24.89-30.75,21.81-50.33l-23.31-148.53Zm-120.42,50.86c0,9.59-7.77,17.37-17.37,17.37h-91.94c-9.59,0-17.37-7.77-17.37-17.37h0c0-9.59,7.77-17.37,17.37-17.37h91.94c9.59,0,17.37,7.77,17.37,17.37h0Z"/><rect class="g" x="132.15" y="133.76" width="126.67" height="34.73" rx="17.37" ry="17.37" transform="translate(390.97 302.25) rotate(180)"/><path class="g" d="M20.9,38.81H366.97c9.2,0,16.67,7.47,16.67,16.67v23.89H4.23v-23.89c0-9.2,7.47-16.67,16.67-16.67Z" transform="translate(-8.32 45.11) rotate(-12.99)"/><path class="i" d="M19.58,107.46l-5.37-23.28c-.16-.69-.26-1.38-.33-2.07-4.76,3.89-7.2,10.26-5.72,16.66l5.37,23.28L383.24,36.75l-2.89-12.52L19.58,107.46Z"/><rect class="j" x="132.26" y="133.76" width="126.67" height="34.73" rx="17.37" ry="17.37" transform="translate(391.19 302.25) rotate(180)"/></g></g></g></g></svg>