<svg width="104" height="81" viewBox="0 0 104 81" fill="none" xmlns="http://www.w3.org/2000/svg">
<path d="M62.2649 34.4107H38.5581C36.0842 34.4107 34.0787 36.4108 34.0787 38.878C34.0787 41.3452 36.0842 43.3453 38.5581 43.3453H62.2649C64.7388 43.3453 66.7442 41.3452 66.7442 38.878C66.7442 36.4108 64.7388 34.4107 62.2649 34.4107Z" fill="#FF6D6A"/>
<path d="M97.8264 25.8132C97.7 25.0028 96.3797 24.532 95.2708 24.8973C85.4456 28.149 68.5881 30.2946 49.438 30.2946C33.1039 30.2946 18.4358 28.733 8.37849 26.2556C6.47276 25.7874 4.41747 26.6467 4.26532 27.9793L0.0850987 64.4918C-0.47192 69.3591 1.702 74.1647 5.78164 76.8916C9.57762 79.4281 14.8616 81 20.7025 81H83.4084C89.19 81 94.4224 79.459 98.2106 76.9713C102.479 74.1646 104.629 69.0607 103.835 64.0236L97.8238 25.8132H97.8264ZM66.7726 38.8973C66.7726 41.3644 64.7689 43.3658 62.2932 43.3658H38.5838C36.1108 43.3658 34.1045 41.3669 34.1045 38.8973C34.1045 36.4302 36.1082 34.4287 38.5838 34.4287H62.2932C64.7663 34.4287 66.7726 36.4276 66.7726 38.8973Z" fill="#87E0AC"/>
<path style="mix-blend-mode:multiply" opacity="0.44" d="M97.8264 25.8132C97.7 25.0028 96.3797 24.532 95.2708 24.8973C85.4456 28.149 68.5881 30.2946 49.438 30.2946C33.1039 30.2946 18.4358 28.733 8.37849 26.2556C6.47276 25.7874 4.41747 26.6467 4.26532 27.9793L0.0850987 64.4918C-0.47192 69.3591 1.702 74.1647 5.78164 76.8916C9.57762 79.4281 14.8616 81 20.7025 81H83.4084C89.19 81 94.4224 79.459 98.2106 76.9713C102.479 74.1646 104.629 69.0607 103.835 64.0236L97.8238 25.8132H97.8264ZM66.7726 38.8973C66.7726 41.3644 64.7689 43.3658 62.2932 43.3658H38.5838C36.1108 43.3658 34.1045 41.3669 34.1045 38.8973C34.1045 36.4302 36.1082 34.4287 38.5838 34.4287H62.2932C64.7663 34.4287 66.7726 36.4276 66.7726 38.8973Z" fill="url(#paint0_linear_1363_19055)"/>
<path d="M38.5581 43.3452H62.2649C64.7388 43.3452 66.7442 41.3451 66.7442 38.8779C66.7442 36.4107 64.7388 34.4107 62.2649 34.4107H38.5581C36.0842 34.4107 34.0787 36.4107 34.0787 38.8779C34.0787 41.3451 36.0842 43.3452 38.5581 43.3452Z" fill="#FF6D6A"/>
<path d="M5.35585 20.1249L92.3162 0.112874C94.628 -0.41913 96.938 1.02144 97.4713 3.32764L98.8561 9.31623L3.51814 31.2562L2.13332 25.2676C1.60003 22.9614 3.04408 20.6569 5.35585 20.1249V20.1249Z" fill="#FF6D6A"/>
<path style="mix-blend-mode:multiply" d="M5.04926 27.6449L3.66445 21.6559C3.62318 21.4784 3.5974 21.3009 3.57935 21.1234C2.35184 22.1241 1.72262 23.7628 2.10428 25.4093L3.48909 31.3982L98.8295 9.4542L98.0842 6.23334L5.04926 27.6449Z" fill="url(#paint1_linear_1363_19055)"/>
<path style="mix-blend-mode:multiply" d="M38.5864 43.3452H62.2932C64.7671 43.3452 66.7726 41.3451 66.7726 38.8779C66.7726 36.4107 64.7671 34.4107 62.2932 34.4107H38.5864C36.1125 34.4107 34.1071 36.4107 34.1071 38.8779C34.1071 41.3451 36.1125 43.3452 38.5864 43.3452Z" fill="url(#paint2_linear_1363_19055)"/>
<defs>
<linearGradient id="paint0_linear_1363_19055" x1="-1.3387e-06" y1="52.8843" x2="104" y2="52.8843" gradientUnits="userSpaceOnUse">
<stop offset="0.51" stop-color="white"/>
<stop offset="0.59" stop-color="#FAFDFB"/>
<stop offset="0.69" stop-color="#EDFAF3"/>
<stop offset="0.78" stop-color="#D8F5E4"/>
<stop offset="0.87" stop-color="#BAEDCF"/>
<stop offset="0.97" stop-color="#94E3B5"/>
<stop offset="1" stop-color="#87E0AC"/>
</linearGradient>
<linearGradient id="paint1_linear_1363_19055" x1="1.99339" y1="18.8158" x2="98.8295" y2="18.8158" gradientUnits="userSpaceOnUse">
<stop stop-color="#E82391"/>
<stop offset="0.1" stop-color="#EC4AA4"/>
<stop offset="0.33" stop-color="#F6ABD5"/>
<stop offset="0.51" stop-color="white"/>
<stop offset="0.55" stop-color="#FEFAFC"/>
<stop offset="0.59" stop-color="#FDEDF6"/>
<stop offset="0.63" stop-color="#FAD8EB"/>
<stop offset="0.67" stop-color="#F7BADC"/>
<stop offset="0.71" stop-color="#F393C8"/>
<stop offset="0.75" stop-color="#EE63B1"/>
<stop offset="0.8" stop-color="#E82C95"/>
<stop offset="0.83" stop-color="#E4007F"/>
</linearGradient>
<linearGradient id="paint2_linear_1363_19055" x1="50.5365" y1="48.5289" x2="50.4031" y2="35.1155" gradientUnits="userSpaceOnUse">
<stop offset="0.51" stop-color="white"/>
<stop offset="0.57" stop-color="#FEFAFC"/>
<stop offset="0.63" stop-color="#FDEDF6"/>
<stop offset="0.69" stop-color="#FAD8EB"/>
<stop offset="0.75" stop-color="#F7BADC"/>
<stop offset="0.82" stop-color="#F393C8"/>
<stop offset="0.89" stop-color="#EE63B1"/>
<stop offset="0.95" stop-color="#E82C95"/>
<stop offset="1" stop-color="#E4007F"/>
</linearGradient>
</defs>
</svg>
