<?xml version="1.0" encoding="UTF-8"?><svg xmlns="http://www.w3.org/2000/svg" xmlns:xlink="http://www.w3.org/1999/xlink" viewBox="0 0 403.29 368.94"><defs><style>.k{fill:#f7941c;}.l{fill:#ede57a;}.m{fill:#ff6d6a;}.n{fill:#202020;}.o{fill:#6f7bd4;}.p{fill:#87e0ac;}.q{fill:url(#j);}.q,.r,.s,.t,.u,.v{mix-blend-mode:multiply;}.r{fill:url(#g);opacity:.75;}.s{fill:url(#h);}.s,.w{opacity:.77;}.t{fill:url(#d);opacity:.23;}.u{fill:url(#i);}.u,.v{opacity:.44;}.v{fill:url(#f);}.x{isolation:isolate;}.w{fill:url(#e);}</style><linearGradient id="d" x1="43.85" y1="-419.25" x2="99.54" y2="-418.13" gradientTransform="translate(-36.83 392.57) rotate(27.63)" gradientUnits="userSpaceOnUse"><stop offset=".49" stop-color="#fff"/><stop offset=".55" stop-color="#fafafa"/><stop offset=".61" stop-color="#ededed"/><stop offset=".68" stop-color="#d8d8d8"/><stop offset=".74" stop-color="#bababa"/><stop offset=".81" stop-color="#939393"/><stop offset=".88" stop-color="#636363"/><stop offset=".95" stop-color="#2c2c2c"/><stop offset="1" stop-color="#000"/></linearGradient><linearGradient id="e" x1="182.27" y1="81.15" x2="200.9" y2="114.73" gradientTransform="matrix(1, 0, 0, 1, 0, 0)" gradientUnits="userSpaceOnUse"><stop offset="0" stop-color="#fff" stop-opacity="0"/><stop offset=".97" stop-color="#fff"/></linearGradient><linearGradient id="f" x1="244.29" y1="133.8" x2="388.43" y2="133.8" gradientTransform="matrix(1, 0, 0, 1, 0, 0)" gradientUnits="userSpaceOnUse"><stop offset="0" stop-color="#fff"/><stop offset=".15" stop-color="#fffcfa"/><stop offset=".32" stop-color="#fff5ed"/><stop offset=".49" stop-color="#ffead8"/><stop offset=".66" stop-color="#ffdaba"/><stop offset=".84" stop-color="#ffc694"/><stop offset=".99" stop-color="#ffb26c"/></linearGradient><linearGradient id="g" x1="130.33" y1="256.83" x2="41.61" y2="78.2" gradientTransform="matrix(1, 0, 0, 1, 0, 0)" gradientUnits="userSpaceOnUse"><stop offset="0" stop-color="#fff"/><stop offset=".13" stop-color="#fefdfa"/><stop offset=".27" stop-color="#fef9ed"/><stop offset=".41" stop-color="#fdf1d8"/><stop offset=".55" stop-color="#fce7ba"/><stop offset=".7" stop-color="#fbd993"/><stop offset=".85" stop-color="#f9c964"/><stop offset="1" stop-color="#f8b62d"/></linearGradient><linearGradient id="h" x1="90.97" y1="185.51" x2="277.75" y2="211.98" gradientTransform="matrix(1, 0, 0, 1, 0, 0)" gradientUnits="userSpaceOnUse"><stop offset="0" stop-color="#e60012"/><stop offset=".51" stop-color="#fff" stop-opacity=".1"/><stop offset=".57" stop-color="#fffcfc" stop-opacity=".12"/><stop offset=".63" stop-color="#fff4f3" stop-opacity=".17"/><stop offset=".7" stop-color="#ffe6e5" stop-opacity=".25"/><stop offset=".77" stop-color="#ffd3d2" stop-opacity=".37"/><stop offset=".84" stop-color="#ffbab9" stop-opacity=".52"/><stop offset=".91" stop-color="#ff9c9a" stop-opacity=".71"/><stop offset=".98" stop-color="#ff7976" stop-opacity=".92"/><stop offset="1" stop-color="#ff6d6a"/></linearGradient><linearGradient id="i" x1="0" y1="259.65" x2="403.29" y2="259.65" gradientTransform="matrix(1, 0, 0, 1, 0, 0)" gradientUnits="userSpaceOnUse"><stop offset=".51" stop-color="#fff"/><stop offset=".59" stop-color="#fafdfb"/><stop offset=".69" stop-color="#edfaf3"/><stop offset=".78" stop-color="#d8f5e4"/><stop offset=".87" stop-color="#baedcf"/><stop offset=".97" stop-color="#94e3b5"/><stop offset="1" stop-color="#87e0ac"/></linearGradient><linearGradient id="j" x1="-2192.65" y1="337.29" x2="-2192.13" y2="389.43" gradientTransform="translate(2388.89 -168.29)" gradientUnits="userSpaceOnUse"><stop offset=".51" stop-color="#fff"/><stop offset=".57" stop-color="#fefafc"/><stop offset=".63" stop-color="#fdedf6"/><stop offset=".69" stop-color="#fad8eb"/><stop offset=".75" stop-color="#f7badc"/><stop offset=".82" stop-color="#f393c8"/><stop offset=".89" stop-color="#ee63b1"/><stop offset=".95" stop-color="#e82c95"/><stop offset="1" stop-color="#e4007f"/></linearGradient></defs><g class="x"><g id="a"/><g id="b"><g id="c"><g><path class="p" d="M262.1,75.83c3.76-7.18,3.98-15.26,1.31-22.28,7.29-1.8,13.81-6.6,17.56-13.77,6.61-12.63,2.3-28.06-9.53-35.54l-62.84,120.08c12.89,5.46,28.03,.2,34.64-12.43,3.76-7.18,3.98-15.26,1.31-22.28,7.29-1.8,13.81-6.6,17.56-13.77Z"/><path class="p" d="M269.49,3.1c-13.3-6.96-29.71-1.82-36.67,11.47-3.76,7.18-3.98,15.26-1.31,22.28-7.29,1.8-13.81,6.6-17.56,13.77-3.76,7.18-3.98,15.26-1.31,22.28-7.29,1.8-13.81,6.6-17.56,13.77-6.96,13.3-1.82,29.71,11.47,36.67,.67,.35,1.35,.66,2.03,.95L271.43,4.23c-.63-.4-1.27-.78-1.94-1.13Z"/><path class="t" d="M269.49,4.18c-13.3-6.96-29.71-1.82-36.67,11.47-3.76,7.18-3.98,15.26-1.31,22.28-7.29,1.8-13.81,6.6-17.56,13.77-3.76,7.18-3.98,15.26-1.31,22.28-7.29,1.8-13.81,6.6-17.56,13.77-6.96,13.3-1.82,29.71,11.47,36.67,.67,.35,1.35,.66,2.03,.95L271.43,5.3c-.63-.4-1.27-.78-1.94-1.13Z"/><path class="n" d="M184.33,81.12l3.69,34.22,6.72,4.03,1.49-35.5c.05-1.16-.6-2.24-1.65-2.75l-6.09-2.94c-2.06-.99-4.41,.67-4.17,2.94Z"/><path class="w" d="M184.33,80.87l3.69,34.22,6.72,4.03,1.49-35.5c.05-1.16-.6-2.24-1.65-2.75l-6.09-2.94c-2.06-.99-4.41,.67-4.17,2.94Z"/><g><circle class="k" cx="308.13" cy="124.18" r="79.9"/><path class="p" d="M333.23,65.38l3.22-1.69c1.19-.63,2.59,.39,2.36,1.72l-.61,3.59,2.61,2.54c.97,.94,.43,2.58-.9,2.78l-3.6,.52-1.61,3.26c-.6,1.21-2.32,1.21-2.92,0l-1.61-3.26-3.6-.52c-1.33-.19-1.87-1.83-.9-2.78l2.61-2.54-.61-3.59c-.23-1.33,1.17-2.34,2.36-1.72l3.22,1.69Z"/><path class="v" d="M360.53,63.51c9.83,13.28,15.65,29.71,15.65,47.5,0,44.13-35.77,79.9-79.9,79.9-19.86,0-38.02-7.25-51.99-19.23,14.56,19.66,37.91,32.4,64.25,32.4,44.13,0,79.9-35.77,79.9-79.9,0-24.27-10.82-46.01-27.91-60.66Z"/></g><g><path class="l" d="M162.51,100.28c-18.23-34.77-55.9-52.71-92.67-47.52-6.89,.97-13.26,4.31-17.98,9.43-25.18,27.29-31.84,68.48-13.61,103.25,18.23,34.77,55.9,52.71,92.67,47.52,6.89-.97,13.26-4.31,17.98-9.43,25.18-27.29,31.84-68.48,13.61-103.25Z"/><circle class="o" cx="67.28" cy="67.81" r="5.75"/><path class="r" d="M50.81,156.47c-17.96-34.26-11.74-74.76,12.55-102.05-4.35,1.65-8.3,4.3-11.5,7.76-25.18,27.29-31.84,68.48-13.61,103.25,18.23,34.77,55.9,52.71,92.67,47.52,6.89-.97,13.26-4.31,17.98-9.43,.36-.4,.71-.8,1.07-1.2-2.08,.79-4.26,1.36-6.49,1.67-36.76,5.19-74.44-12.76-92.67-47.52Z"/></g><path class="m" d="M226.66,104.5c-9.36-.15-18.29,1.64-26.41,4.99-5.63,2.33-11.91,2.33-17.54,0-8.12-3.35-17.04-5.14-26.41-4.99-36.11,.6-65.35,30.48-65.21,66.59,.15,36.5,29.79,66.05,66.33,66.05,12.45,0,24.1-3.44,34.06-9.41,9.96,5.97,21.6,9.41,34.06,9.41,36.54,0,66.18-29.55,66.33-66.05,.15-36.12-29.1-65.99-65.21-66.59Z"/><path class="s" d="M231.43,213.7c-12.45,0-24.1-3.44-34.06-9.41-9.96,5.97-21.6,9.41-34.06,9.41-36.54,0-66.18-29.55-66.33-66.05,0-1.39,.05-2.77,.13-4.15-3.85,8.43-5.99,17.78-5.95,27.59,.15,36.5,29.79,66.05,66.33,66.05,12.45,0,24.1-3.44,34.06-9.41,9.96,5.97,21.6,9.41,34.06,9.41,35.28,0,64.12-27.55,66.2-62.31-10.44,22.93-33.54,38.87-60.37,38.87Z"/><rect class="m" x="133.28" y="189.16" width="126.67" height="34.73" rx="17.37" ry="17.37"/><path class="p" d="M379.35,154.42c-.49-3.15-5.61-4.98-9.91-3.56-38.1,12.64-103.47,20.98-177.73,20.98-63.34,0-120.22-6.07-159.22-15.7-7.39-1.82-15.36,1.52-15.95,6.7L.33,304.77c-2.16,18.92,6.27,37.6,22.09,48.2,14.72,9.86,35.21,15.97,57.86,15.97h243.16c22.42,0,42.71-5.99,57.4-15.66,16.55-10.91,24.89-30.75,21.81-50.33l-23.31-148.53Zm-120.42,50.86c0,9.59-7.77,17.37-17.37,17.37h-91.94c-9.59,0-17.37-7.77-17.37-17.37h0c0-9.59,7.77-17.37,17.37-17.37h91.94c9.59,0,17.37,7.77,17.37,17.37h0Z"/><path class="u" d="M379.35,154.42c-.49-3.15-5.61-4.98-9.91-3.56-38.1,12.64-103.47,20.98-177.73,20.98-63.34,0-120.22-6.07-159.22-15.7-7.39-1.82-15.36,1.52-15.95,6.7L.33,304.77c-2.16,18.92,6.27,37.6,22.09,48.2,14.72,9.86,35.21,15.97,57.86,15.97h243.16c22.42,0,42.71-5.99,57.4-15.66,16.55-10.91,24.89-30.75,21.81-50.33l-23.31-148.53Zm-120.42,50.86c0,9.59-7.77,17.37-17.37,17.37h-91.94c-9.59,0-17.37-7.77-17.37-17.37h0c0-9.59,7.77-17.37,17.37-17.37h91.94c9.59,0,17.37,7.77,17.37,17.37h0Z"/><rect class="q" x="133.28" y="189.16" width="126.67" height="34.73" rx="17.37" ry="17.37" transform="translate(393.23 413.05) rotate(-180)"/></g></g></g></g></svg>