<svg width="27" height="27" viewBox="0 0 27 27" fill="none" xmlns="http://www.w3.org/2000/svg">
<path d="M12.8488 6.45927L13.2024 6.81282L13.5559 6.45927L14.5461 5.46912C15.6085 4.40664 17.0495 3.80029 18.5657 3.80029C20.0798 3.80029 21.5143 4.40465 22.5733 5.53924L22.5792 5.54554L22.5853 5.55163C24.8654 7.83174 24.8654 11.4757 22.5853 13.7558L22.5838 13.7573L13.2024 23.2183L3.82095 13.7573L3.81946 13.7559C1.53935 11.4757 1.53935 7.83174 3.81946 5.55163L3.90197 5.46912C6.09855 3.27253 9.7379 3.2725 11.9352 5.54559L11.9352 5.54564L11.9412 5.55163L12.8488 6.45927Z" stroke="black"/>
</svg>
