<svg width="68" height="68" viewBox="0 0 68 68" fill="none" xmlns="http://www.w3.org/2000/svg">
<path d="M57.12 22.1C56.865 20.7967 55.7033 19.8333 54.3433 19.8333H13.6567C12.2967 19.8333 11.135 20.7967 10.88 22.1L8.5 34V36.8333C8.5 38.3917 9.775 39.6667 11.3333 39.6667V53.8333C11.3333 55.3917 12.6083 56.6667 14.1667 56.6667H36.8333C38.3917 56.6667 39.6667 55.3917 39.6667 53.8333V39.6667H51V53.8333C51 55.3917 52.275 56.6667 53.8333 56.6667C55.3917 56.6667 56.6667 55.3917 56.6667 53.8333V39.6667C58.225 39.6667 59.5 38.3917 59.5 36.8333V34L57.12 22.1ZM34 51H17V39.6667H34V51ZM14.1667 17H53.8333C55.3917 17 56.6667 15.725 56.6667 14.1667C56.6667 12.6083 55.3917 11.3333 53.8333 11.3333H14.1667C12.6083 11.3333 11.3333 12.6083 11.3333 14.1667C11.3333 15.725 12.6083 17 14.1667 17Z" fill="#87E0AC"/>
</svg>
