<?xml version="1.0" encoding="UTF-8"?><svg xmlns="http://www.w3.org/2000/svg" xmlns:xlink="http://www.w3.org/1999/xlink" viewBox="0 0 403.29 365.08"><defs><style>.m{fill:#f7941c;}.n{fill:#ede57a;}.o{fill:#ff6d6a;}.p{fill:#87e0ac;}.q{fill:url(#g);}.q,.r,.s,.t,.u,.v,.w,.x,.y{mix-blend-mode:multiply;}.r{fill:url(#j);}.s{fill:url(#k);}.t{fill:url(#h);}.u{fill:url(#i);}.v{fill:url(#l);opacity:.44;}.w{fill:url(#e);opacity:.42;}.x{fill:url(#f);opacity:.4;}.y{fill:url(#d);opacity:.19;}.a`{isolation:isolate;}</style><linearGradient id="d" x1="425.75" y1="24.76" x2="395.26" y2="25.14" gradientTransform="translate(21.49 -152.08) rotate(31.95)" gradientUnits="userSpaceOnUse"><stop offset=".53" stop-color="#fff"/><stop offset=".58" stop-color="#fafafc"/><stop offset=".65" stop-color="#ededf5"/><stop offset=".71" stop-color="#d8d8ea"/><stop offset=".78" stop-color="#babbda"/><stop offset=".85" stop-color="#9394c6"/><stop offset=".91" stop-color="#6466ad"/><stop offset=".98" stop-color="#2d2f90"/><stop offset="1" stop-color="#1d2088"/></linearGradient><linearGradient id="e" x1="15.55" y1="141.74" x2="175.82" y2="141.74" gradientTransform="matrix(1, 0, 0, 1, 0, 0)" gradientUnits="userSpaceOnUse"><stop offset="0" stop-color="#e60012"/><stop offset=".42" stop-color="#fffffe" stop-opacity=".47"/><stop offset=".46" stop-color="#fffffe" stop-opacity=".44"/><stop offset=".46" stop-color="#fff" stop-opacity=".44"/><stop offset="1" stop-color="#f7941c"/></linearGradient><linearGradient id="f" x1="74.08" y1="148.03" x2="136.2" y2="237.82" xlink:href="#e"/><linearGradient id="g" x1="289.85" y1="-32.27" x2="327.5" y2="79.8" gradientTransform="translate(-45 -47.96) rotate(27.94)" gradientUnits="userSpaceOnUse"><stop offset="0" stop-color="#f7941c"/><stop offset=".42" stop-color="#fffffe" stop-opacity=".47"/><stop offset=".46" stop-color="#fffffe" stop-opacity=".44"/><stop offset=".46" stop-color="#fff" stop-opacity=".44"/><stop offset="1" stop-color="#f89d2f" stop-opacity=".98"/></linearGradient><linearGradient id="h" x1="225.18" y1="92.16" x2="413.34" y2="92.16" xlink:href="#g"/><linearGradient id="i" x1="126.5" y1="187.37" x2="327.33" y2="187.37" gradientTransform="translate(30.88 -18.73) rotate(-4.59)" xlink:href="#e"/><linearGradient id="j" x1="253.18" y1="131.84" x2="358.05" y2="131.84" gradientTransform="translate(-22.1 111.54) rotate(-19.35)" xlink:href="#e"/><linearGradient id="k" x1="-4685.63" y1="332.99" x2="-4685.12" y2="385.13" gradientTransform="translate(4880.75 -169.16)" gradientUnits="userSpaceOnUse"><stop offset=".51" stop-color="#fff"/><stop offset=".57" stop-color="#fefafc"/><stop offset=".63" stop-color="#fdedf6"/><stop offset=".69" stop-color="#fad8eb"/><stop offset=".75" stop-color="#f7badc"/><stop offset=".82" stop-color="#f393c8"/><stop offset=".89" stop-color="#ee63b1"/><stop offset=".95" stop-color="#e82c95"/><stop offset="1" stop-color="#e4007f"/></linearGradient><linearGradient id="l" x1="0" y1="255.8" x2="403.29" y2="255.8" gradientTransform="matrix(1, 0, 0, 1, 0, 0)" gradientUnits="userSpaceOnUse"><stop offset=".51" stop-color="#fff"/><stop offset=".59" stop-color="#fafdfb"/><stop offset=".69" stop-color="#edfaf3"/><stop offset=".78" stop-color="#d8f5e4"/><stop offset=".87" stop-color="#baedcf"/><stop offset=".97" stop-color="#94e3b5"/><stop offset="1" stop-color="#87e0ac"/></linearGradient></defs><g class="a`"><g id="a"/><g id="b"><g id="c"><g><path class="p" d="M399.53,46.82c5.83-9.35,2.98-21.66-6.37-27.49-5.27-3.28-11.47-3.81-16.93-1.98-.75-5.71-3.96-11.04-9.22-14.33-9.35-5.83-21.66-2.98-27.49,6.37s-3.04,21.33,6.03,27.25l-59.55,95.5,26.86,16.75,59.55-95.5c9.3,5.54,21.37,2.66,27.12-6.58Z"/><path class="y" d="M393.16,19.33c-5.27-3.28-11.47-3.81-16.93-1.98h0l-76.81,123.17,13.43,8.37,59.55-95.5c9.3,5.54,21.37,2.66,27.12-6.58,5.83-9.35,2.98-21.66-6.37-27.49Z"/><path class="n" d="M82.42,105.87L15.55,147.68c35.71,58.17,80.62,70.52,108.91,71.71,17.91,.75,34.45-9.59,41.62-26.02,11.32-25.96,19.88-71.75-16.79-129.32l-66.87,41.81Z"/><path class="w" d="M82.42,105.87L15.55,147.68c35.71,58.17,80.62,70.52,108.91,71.71,17.91,.75,34.45-9.59,41.62-26.02,11.32-25.96,19.88-71.75-16.79-129.32l-66.87,41.81Z"/><path class="x" d="M136.57,204.18c-24.11-4.12-61.99-19.39-98.79-70.42l-22.26,13.92c35.71,58.17,80.62,70.52,108.91,71.71,17.31,.73,33.33-8.91,40.86-24.38-6.93,7.62-17.22,11.14-28.72,9.17Z"/><ellipse class="o" cx="82.42" cy="105.87" rx="78.87" ry="55.1" transform="translate(-43.59 59.8) rotate(-32.02)"/><ellipse class="n" cx="80.47" cy="102.75" rx="62.88" ry="43.93" transform="translate(-42.24 58.3) rotate(-32.02)"/><ellipse class="o" cx="72.91" cy="92.65" rx="11.58" ry="8.09" transform="translate(-38.03 52.75) rotate(-32.02)"/><path class="m" d="M255.7,190.58c-1.85-5.43-5.96-9.7-11.16-12.11-14.82-6.85-26.92-19.51-32.61-36.18s-3.86-34.09,3.67-48.57c2.64-5.09,3.28-10.98,1.43-16.4l-.32-.94c-5.64-16.51-28.15-19.22-37.16-4.28-14.78,24.51-19.03,55.13-9.06,84.34s32.07,50.83,58.75,61.19c16.26,6.31,32.41-9.6,26.78-26.11l-.32-.94Z"/><path class="q" d="M185.91,146.66c-9.88-28.93-6.23-59.18,7.51-83.95-5.38,.96-10.43,4.02-13.7,9.45-14.78,24.52-19.04,55.15-9.06,84.36,9.97,29.22,32.07,50.85,58.76,61.21,9.05,3.52,18.06,.13,23.31-6.4-2-.16-4.04-.6-6.08-1.39-27.59-10.71-50.44-33.07-60.75-63.28Z"/><path class="m" d="M277.05,173.32c-5.83-3.09-12.65-3.44-18.92-1.36-17.85,5.93-37.99,4.85-55.92-4.66s-30.12-25.57-35.23-43.67c-1.79-6.36-5.91-11.8-11.74-14.9l-1.01-.54c-17.75-9.41-38.79,6.07-34.57,25.71,6.93,32.23,27.51,61.3,58.92,77.96,31.41,16.66,67.02,17.38,97.59,5.04,18.63-7.53,19.64-33.63,1.89-43.04l-1.01-.54Z"/><path class="t" d="M284.66,200.91c-30.57,12.35-66.18,11.62-97.59-5.04-31.41-16.66-51.99-45.72-58.92-77.96-.51-2.39-.65-4.72-.46-6.95-6.33,5.23-10.02,13.61-8.01,22.94,6.93,32.23,27.51,61.3,58.92,77.96,31.41,16.66,67.02,17.39,97.59,5.04,8.84-3.57,13.71-11.33,14.49-19.5-1.74,1.4-3.74,2.6-6.01,3.51Z"/><path class="o" d="M266.88,85.34c-48.6,3.9-86.59,40.99-93.49,87.23-1.81,12.14,8.27,22.79,20.51,21.8l162.42-13.04c12.24-.98,20.5-13.1,16.77-24.8-14.19-44.54-57.61-75.1-106.21-71.19Z"/><path class="u" d="M372.84,156.56c-6.46-20.26-18.97-37.61-35.25-50.15,9.59,10.65,17.02,23.34,21.51,37.44,3.73,11.7-4.53,23.81-16.77,24.8l-162.42,13.04c-2.11,.17-4.14-.03-6.07-.5,2.62,8.11,10.61,13.95,19.81,13.21l162.42-13.04c12.24-.98,20.5-13.1,16.77-24.8Z"/><rect class="o" x="132.15" y="183.98" width="126.67" height="34.73" rx="17.37" ry="17.37"/><circle class="m" cx="213.03" cy="64.28" r="5.77"/><circle class="m" cx="204.95" cy="60.31" r="5.77"/><path class="o" d="M349.2,88.55c-4.76-10.48-16.63-16.2-27.79-13.39-4.86,1.23-8.94,3.8-12.01,7.19h0c-10.71,10.53-25.23,15.39-25.23,15.39-22.47,7.89-33.56,33.63-22.94,55.72,8.18,17.03,27.57,26.12,45.91,21.58,16.82-4.17,28.17-17.95,30.38-33.61,0-.03,0-.05,.01-.07,.01-.13,.04-.26,.05-.39,.03-.24,.07-.48,.1-.72,1.49-11.02,9.29-27.73,9.29-27.73h-.01c4.73-6.72,5.98-15.72,2.25-23.95Z"/><path class="r" d="M349.15,88.4c-.94-2.07-2.16-3.94-3.59-5.61-.16,4.75-1.72,9.32-4.41,13.15h.01s-7.8,16.72-9.29,27.74c-.03,.24-.07,.48-.1,.72-.01,.13-.04,.27-.05,.39,0,.03,0,.05-.01,.07-2.21,15.67-13.56,29.44-30.38,33.61-16.99,4.21-34.87-3.3-43.91-17.97,.52,4.3,1.75,8.61,3.76,12.79,8.18,17.03,27.57,26.12,45.91,21.58,16.82-4.17,28.17-17.95,30.38-33.61,0-.03,0-.05,.01-.07,.01-.13,.04-.26,.05-.39,.03-.24,.07-.48,.1-.72,1.49-11.02,9.29-27.73,9.29-27.73h-.01c4.73-6.72,5.98-15.72,2.25-23.95Z"/><rect class="s" x="132.15" y="183.98" width="126.67" height="34.73" rx="17.37" ry="17.37" transform="translate(390.97 402.7) rotate(180)"/><path class="p" d="M379.35,150.56c-.49-3.15-5.61-4.98-9.91-3.56-38.1,12.64-103.47,20.98-177.73,20.98-63.34,0-120.22-6.07-159.22-15.7-7.39-1.82-15.36,1.52-15.95,6.7L.33,300.91c-2.16,18.92,6.27,37.6,22.09,48.2,14.72,9.86,35.21,15.97,57.86,15.97h243.16c22.42,0,42.71-5.99,57.4-15.66,16.55-10.91,24.89-30.75,21.81-50.33l-23.31-148.53Zm-120.42,50.86c0,9.59-7.77,17.37-17.37,17.37h-91.94c-9.59,0-17.37-7.77-17.37-17.37h0c0-9.59,7.77-17.37,17.37-17.37h91.94c9.59,0,17.37,7.77,17.37,17.37h0Z"/><path class="v" d="M379.35,150.56c-.49-3.15-5.61-4.98-9.91-3.56-38.1,12.64-103.47,20.98-177.73,20.98-63.34,0-120.22-6.07-159.22-15.7-7.39-1.82-15.36,1.52-15.95,6.7L.33,300.91c-2.16,18.92,6.27,37.6,22.09,48.2,14.72,9.86,35.21,15.97,57.86,15.97h243.16c22.42,0,42.71-5.99,57.4-15.66,16.55-10.91,24.89-30.75,21.81-50.33l-23.31-148.53Zm-120.42,50.86c0,9.59-7.77,17.37-17.37,17.37h-91.94c-9.59,0-17.37-7.77-17.37-17.37h0c0-9.59,7.77-17.37,17.37-17.37h91.94c9.59,0,17.37,7.77,17.37,17.37h0Z"/></g></g></g></g></svg>