<svg width="4" height="16" viewBox="0 0 4 16" fill="none" xmlns="http://www.w3.org/2000/svg">
<path d="M2 14L2 12C0.89543 12 -5.19966e-07 12.8954 -5.68248e-07 14L2 14ZM2 14L-5.68248e-07 14C-6.1653e-07 15.1046 0.89543 16 2 16L2 14ZM2 14L2 16C3.10457 16 4 15.1046 4 14L2 14ZM4 14C4 12.8954 3.10457 12 2 12L2 14L4 14ZM2 8L2 6C0.89543 6 -2.57697e-07 6.89543 -3.0598e-07 8L2 8ZM2 8L-3.0598e-07 8C-3.54262e-07 9.10457 0.89543 10 2 10L2 8ZM2 8L2 10C3.10457 10 4 9.10457 4 8L2 8ZM4 8C4 6.89543 3.10457 6 2 6L2 8L4 8ZM2 2L2 -4.37114e-08C0.895431 -9.19937e-08 4.57088e-09 0.89543 -4.37114e-08 2L2 2ZM2 2L-4.37114e-08 2C-9.19937e-08 3.10457 0.89543 4 2 4L2 2ZM2 2L2 4C3.10457 4 4 3.10457 4 2L2 2ZM4 2C4 0.895431 3.10457 4.57088e-09 2 -4.37114e-08L2 2L4 2Z" fill="#222222"/>
</svg>
