<svg width="16" height="20" viewBox="0 0 16 20" fill="none" xmlns="http://www.w3.org/2000/svg">
<path d="M15 15.8H14H15ZM15 7.65399H16H15ZM14.1483 5.47986L13.4146 6.15927L14.1483 5.47986ZM10.9502 2.02588L10.2164 2.70529L10.9502 2.02588ZM4.2002 19V18V19ZM11.8002 19V20V19ZM1.21799 17.908L2.10899 17.454L1.21799 17.908ZM2.0918 18.782L2.54579 17.891L2.0918 18.782ZM2.0918 1.21799L2.54579 2.10899L2.54579 2.10899L2.0918 1.21799ZM1.21799 2.09204L0.32698 1.63805L0.32698 1.63805L1.21799 2.09204ZM10.2168 1.32343L9.67155 2.1617V2.1617L10.2168 1.32343ZM9.61515 1.06077L9.85979 0.0911608V0.0911607L9.61515 1.06077ZM14.9502 6.73932L13.9752 6.96153L14.9502 6.73932ZM14.7332 6.18499L15.5996 5.68562V5.68562L14.7332 6.18499ZM14.7822 17.908L15.6732 18.362L14.7822 17.908ZM13.9078 18.782L14.3618 19.673L13.9078 18.782ZM5 14C4.44772 14 4 14.4477 4 15C4 15.5523 4.44772 16 5 16V14ZM11 16C11.5523 16 12 15.5523 12 15C12 14.4477 11.5523 14 11 14V16ZM5 11C4.44772 11 4 11.4477 4 12C4 12.5523 4.44772 13 5 13V11ZM11 13C11.5523 13 12 12.5523 12 12C12 11.4477 11.5523 11 11 11V13ZM14.9996 8C15.5519 8 15.9996 7.55228 15.9996 7C15.9996 6.44772 15.5519 6 14.9996 6V8ZM10.5996 7V6V7ZM10 1C10 0.447715 9.55229 0 9 0C8.44772 0 8 0.447715 8 1H10ZM9.5459 6.89099L9.99989 5.99998L9.5459 6.89099ZM9.10899 6.45401L10 6.00002V6.00002L9.10899 6.45401ZM16 15.8V7.65399H14V15.8H16ZM14.8821 4.80045L11.684 1.34647L10.2164 2.70529L13.4146 6.15927L14.8821 4.80045ZM8.60207 0H4.2002V2H8.60207V0ZM0 4.20001V15.8H2V4.20001H0ZM4.2002 20H11.8002V18H4.2002V20ZM0 15.8C0 16.3436 -0.000777721 16.8114 0.0305696 17.195C0.062871 17.5904 0.134188 17.9836 0.326981 18.362L2.10899 17.454C2.0838 17.4045 2.04612 17.3038 2.02393 17.0322C2.00078 16.7488 2 16.3766 2 15.8H0ZM4.2002 18C3.62367 18 3.25127 17.9992 2.96782 17.9761C2.69598 17.9538 2.59519 17.9161 2.54579 17.891L1.63781 19.673C2.01623 19.8658 2.40959 19.9371 2.80496 19.9694C3.18873 20.0008 3.65662 20 4.2002 20V18ZM0.326981 18.362C0.614492 18.9262 1.07311 19.3853 1.63781 19.673L2.54579 17.891C2.35784 17.7952 2.20498 17.6424 2.10899 17.454L0.326981 18.362ZM4.2002 0C3.65663 0 3.18874 -0.000777125 2.80498 0.0305674C2.40962 0.0628602 2.01624 0.134157 1.63781 0.326981L2.54579 2.10899C2.59517 2.08383 2.69595 2.04613 2.9678 2.02393C3.25126 2.00078 3.62365 2 4.2002 2V0ZM2 4.20001C2 3.62346 2.00078 3.25119 2.02393 2.96785C2.04612 2.69619 2.0838 2.59548 2.10899 2.54603L0.32698 1.63805C0.134187 2.01643 0.0628706 2.40964 0.0305695 2.80499C-0.000777721 3.18866 0 3.65646 0 4.20001H2ZM1.63781 0.326981C1.07306 0.614732 0.614469 1.07382 0.32698 1.63805L2.10899 2.54603C2.205 2.35761 2.35788 2.20474 2.54579 2.10899L1.63781 0.326981ZM11.684 1.34647C11.3679 1.00514 11.0986 0.704074 10.762 0.485152L9.67155 2.1617C9.75146 2.21368 9.8325 2.29063 10.2164 2.70529L11.684 1.34647ZM8.60207 2C9.16745 2 9.27814 2.00708 9.37051 2.03039L9.85979 0.0911607C9.47042 -0.00708163 9.06697 0 8.60207 0V2ZM10.762 0.485152C10.4847 0.30473 10.1794 0.171812 9.85979 0.0911608L9.37051 2.03039C9.47785 2.05747 9.57977 2.102 9.67155 2.1617L10.762 0.485152ZM16 7.65399C16 7.23616 16.006 6.87184 15.9252 6.5171L13.9752 6.96153C13.9944 7.04561 14 7.1448 14 7.65399H16ZM13.4146 6.15927C13.7602 6.53258 13.8237 6.60956 13.8668 6.68435L15.5996 5.68562C15.4179 5.37049 15.1663 5.10736 14.8821 4.80045L13.4146 6.15927ZM15.9252 6.5171C15.8588 6.22591 15.7494 5.94555 15.5996 5.68562L13.8668 6.68435C13.9163 6.77021 13.9529 6.86359 13.9752 6.96153L15.9252 6.5171ZM14 15.8C14 16.3767 13.9993 16.7489 13.9762 17.0323C13.954 17.304 13.9164 17.4046 13.8912 17.454L15.6732 18.362C15.8661 17.9835 15.9373 17.5902 15.9696 17.1949C16.0008 16.8113 16 16.3435 16 15.8H14ZM11.8002 20C12.3438 20 12.8115 20.0008 13.1951 19.9694C13.5904 19.9371 13.9835 19.8657 14.3618 19.673L13.4538 17.891C13.4043 17.9162 13.3036 17.9539 13.0321 17.9761C12.7489 17.9992 12.3767 18 11.8002 18V20ZM13.8912 17.454C13.7956 17.6417 13.6424 17.7949 13.4538 17.891L14.3618 19.673C14.9258 19.3856 15.3854 18.9269 15.6732 18.362L13.8912 17.454ZM5 16H11V14H5V16ZM5 13H11V11H5V13ZM14.9996 6H10.5996V8H14.9996V6ZM10 5.4V1H8V5.4H10ZM10.5996 6C10.3031 6 10.1409 5.99922 10.0244 5.98969C9.91972 5.98113 9.94247 5.97073 9.99989 5.99998L9.09191 7.782C9.36324 7.92025 9.63282 7.96435 9.86146 7.98304C10.0783 8.00077 10.3361 8 10.5996 8V6ZM8 5.4C8 5.66353 7.99922 5.92132 8.01694 6.13824C8.03562 6.36683 8.07969 6.63657 8.21799 6.90801L10 6.00002C10.0293 6.05754 10.0189 6.08031 10.0103 5.97538C10.0008 5.85879 10 5.69653 10 5.4H8ZM9.99989 5.99998L10 6.00002L8.21799 6.90801C8.40966 7.28418 8.71543 7.59017 9.09191 7.782L9.99989 5.99998Z" fill="#222222"/>
</svg>
