<svg width="18" height="19" viewBox="0 0 18 19" fill="none" xmlns="http://www.w3.org/2000/svg">
<path d="M2.09277 7.04395L1.43427 6.29137L2.09277 7.04395ZM6.89278 2.84395L6.23427 2.09137L6.23427 2.09137L6.89278 2.84395ZM11.1074 2.84395L10.4489 3.59652V3.59652L11.1074 2.84395ZM15.9074 7.04395L15.2489 7.79653L15.9074 7.04395ZM8.43262 1.73982L8.7162 2.69877L8.43262 1.73982ZM9.56738 1.73982L9.2838 2.69877L9.56738 1.73982ZM1.06497 8.40205L2.03249 8.65487L1.06497 8.40205ZM1.34521 7.78433L0.517839 7.22268L0.517839 7.22268L1.34521 7.78433ZM1.15224 16.7654L0.228361 17.1481H0.228361L1.15224 16.7654ZM6.84766 16.7654L5.92378 16.3828L6.84766 16.7654ZM5.76537 17.8479L6.14805 18.7717L5.76537 17.8479ZM11.1522 16.7654L10.2284 17.1481V17.1481L11.1522 16.7654ZM16.8477 16.7654L15.9238 16.3828L16.8477 16.7654ZM15.7654 17.8479L16.1481 18.7717L15.7654 17.8479ZM16.9351 8.40205L15.9675 8.65487L16.9351 8.40205ZM16.6548 7.78432L17.4821 7.22268V7.22268L16.6548 7.78432ZM16 9.45222V15.0002H18V9.45222H16ZM12 15.0001V14.0001H10V15.0001H12ZM6 14.0001V15.0001H8V14.0001H6ZM2 15.0002V9.45222H0V15.0002H2ZM2.75128 7.79653L7.55128 3.59652L6.23427 2.09137L1.43427 6.29137L2.75128 7.79653ZM10.4489 3.59652L15.2489 7.79653L16.5659 6.29137L11.7659 2.09137L10.4489 3.59652ZM7.55128 3.59652C7.93616 3.25975 8.18282 3.04481 8.38406 2.89429C8.57527 2.75129 8.66501 2.71391 8.7162 2.69877L8.14903 0.780875C7.7801 0.889978 7.47323 1.07802 7.1862 1.29269C6.9092 1.49986 6.596 1.77486 6.23427 2.09137L7.55128 3.59652ZM11.7659 2.09137C11.4041 1.77481 11.0909 1.49982 10.8138 1.29263C10.5267 1.07796 10.2198 0.889961 9.85097 0.780875L9.2838 2.69877C9.33505 2.71392 9.42487 2.75135 9.61612 2.89435C9.81737 3.04484 10.0641 3.2598 10.4489 3.59652L11.7659 2.09137ZM8.7162 2.69877C8.9013 2.64403 9.0987 2.64403 9.2838 2.69877L9.85097 0.780875C9.29568 0.616662 8.70432 0.616662 8.14903 0.780875L8.7162 2.69877ZM2 9.45222C2 8.86552 2.00759 8.75014 2.03249 8.65487L0.0974571 8.14924C-0.00759125 8.55125 0 8.97024 0 9.45222H2ZM1.43427 6.29137C1.07166 6.60865 0.751233 6.87886 0.517839 7.22268L2.17259 8.34597C2.22787 8.26454 2.30962 8.18298 2.75128 7.79653L1.43427 6.29137ZM2.03249 8.65487C2.06132 8.54454 2.10873 8.44005 2.17259 8.34597L0.517839 7.22268C0.325879 7.50546 0.18378 7.81888 0.0974571 8.14924L2.03249 8.65487ZM4.00023 17.0001C3.52061 17.0001 3.21097 16.9996 2.97399 16.9834C2.74599 16.9678 2.65916 16.9412 2.61755 16.924L1.85218 18.7717C2.17811 18.9067 2.50802 18.9562 2.83785 18.9787C3.15869 19.0006 3.54797 19.0001 4.00023 19.0001V17.0001ZM0 15.0002C0 15.4524 -0.000541687 15.8417 0.02135 16.1625C0.0438555 16.4923 0.0933628 16.8222 0.228361 17.1481L2.07612 16.3828C2.05888 16.3411 2.03226 16.2543 2.01671 16.0264C2.00054 15.7894 2 15.4798 2 15.0002H0ZM2.61755 16.924C2.37233 16.8224 2.17754 16.6276 2.07612 16.3828L0.228361 17.1481C0.532922 17.8834 1.11729 18.4673 1.85218 18.7717L2.61755 16.924ZM6 15.0001C6 15.4796 5.99943 15.7893 5.98324 16.0262C5.96767 16.2542 5.94104 16.3411 5.92378 16.3828L7.77154 17.1481C7.90651 16.8223 7.95606 16.4924 7.97859 16.1625C8.00052 15.8417 8 15.4524 8 15.0001H6ZM4.00023 19.0001C4.45249 19.0001 4.84171 19.0006 5.16251 18.9787C5.49233 18.9562 5.82216 18.9067 6.14805 18.7717L5.38268 16.924C5.34104 16.9412 5.25424 16.9678 5.02634 16.9834C4.78943 16.9996 4.47986 17.0001 4.00023 17.0001V19.0001ZM5.92378 16.3828C5.82224 16.6279 5.6276 16.8225 5.38268 16.924L6.14805 18.7717C6.88325 18.4672 7.4671 17.8831 7.77154 17.1481L5.92378 16.3828ZM9 11.0001C7.34315 11.0001 6 12.3432 6 14.0001H8C8 13.4478 8.44772 13.0001 9 13.0001V11.0001ZM12 14.0001C12 12.3432 10.6569 11.0001 9 11.0001V13.0001C9.55228 13.0001 10 13.4478 10 14.0001H12ZM14.0002 17.0001C13.5206 17.0001 13.211 16.9996 12.974 16.9834C12.746 16.9678 12.6592 16.9412 12.6175 16.924L11.8522 18.7717C12.1781 18.9067 12.508 18.9562 12.8378 18.9787C13.1587 19.0006 13.548 19.0001 14.0002 19.0001V17.0001ZM10 15.0001C10 15.4523 9.99946 15.8416 10.0213 16.1625C10.0439 16.4923 10.0934 16.8222 10.2284 17.1481L12.0761 16.3828C12.0589 16.3411 12.0323 16.2543 12.0167 16.0263C12.0005 15.7893 12 15.4797 12 15.0001H10ZM12.6175 16.924C12.3723 16.8224 12.1775 16.6276 12.0761 16.3828L10.2284 17.1481C10.5329 17.8834 11.1173 18.4673 11.8522 18.7717L12.6175 16.924ZM16 15.0002C16 15.4797 15.9994 15.7893 15.9832 16.0263C15.9677 16.2542 15.941 16.3411 15.9238 16.3828L17.7715 17.1481C17.9065 16.8223 17.9561 16.4925 17.9786 16.1626C18.0005 15.8417 18 15.4525 18 15.0002H16ZM14.0002 19.0001C14.4525 19.0001 14.8417 19.0006 15.1625 18.9787C15.4923 18.9562 15.8222 18.9067 16.1481 18.7717L15.3827 16.924C15.341 16.9412 15.2542 16.9678 15.0263 16.9834C14.7894 16.9996 14.4799 17.0001 14.0002 17.0001V19.0001ZM15.9238 16.3828C15.8222 16.6279 15.6276 16.8225 15.3827 16.924L16.1481 18.7717C16.8832 18.4672 17.4671 17.8831 17.7715 17.1481L15.9238 16.3828ZM18 9.45222C18 8.97034 18.0076 8.55127 17.9026 8.14924L15.9675 8.65487C15.9924 8.75011 16 8.86543 16 9.45222H18ZM15.2489 7.79653C15.6902 8.18265 15.772 8.26444 15.8274 8.34597L17.4821 7.22268C17.2488 6.87896 16.9289 6.60898 16.5659 6.29137L15.2489 7.79653ZM17.9026 8.14924C17.8162 7.81875 17.674 7.50534 17.4821 7.22268L15.8274 8.34597C15.8913 8.44016 15.9387 8.54467 15.9675 8.65487L17.9026 8.14924Z" fill="#222222"/>
</svg>
