<svg width="20" height="18" viewBox="0 0 20 18" fill="none" xmlns="http://www.w3.org/2000/svg">
<path d="M10 4.19444L9.08001 4.58638C9.23711 4.95512 9.59919 5.19444 10 5.19444C10.4008 5.19444 10.7629 4.95512 10.92 4.58638L10 4.19444ZM10 17L9.51436 17.8742C9.81638 18.042 10.1836 18.042 10.4856 17.8742L10 17ZM2 6.00003C2 4.70007 2.37574 3.78186 2.89025 3.17022C3.40763 2.55517 4.11636 2.18844 4.89263 2.07658C6.4546 1.8515 8.26195 2.66621 9.08001 4.58638L10.92 3.80249C9.73805 1.02823 7.0454 -0.254287 4.60737 0.0970316C3.38364 0.273371 2.21737 0.863247 1.35975 1.88275C0.499261 2.90568 0 4.29997 0 6.00003H2ZM10.92 4.58638C11.7381 2.66621 13.5454 1.8515 15.1074 2.07658C15.8836 2.18844 16.5924 2.55517 17.1098 3.17022C17.6243 3.78186 18 4.70007 18 6.00003H20C20 4.29997 19.5007 2.90568 18.6402 1.88275C17.7826 0.863247 16.6164 0.273371 15.3926 0.0970316C12.9546 -0.254287 10.2619 1.02823 9.08001 3.80249L10.92 4.58638ZM18 6.00003C18 8.53324 16.0616 11.024 13.8356 13.0026C12.7547 13.9634 11.6691 14.7479 10.8516 15.293C10.4438 15.5648 10.1051 15.7755 9.87023 15.9172C9.75286 15.9879 9.6616 16.0414 9.6008 16.0765C9.57041 16.0941 9.54764 16.1071 9.53305 16.1153C9.52575 16.1195 9.5205 16.1224 9.51736 16.1242C9.51579 16.125 9.51475 16.1256 9.51425 16.1259C9.514 16.126 9.51388 16.1261 9.5139 16.1261C9.51391 16.1261 9.51402 16.126 9.51403 16.126C9.51418 16.1259 9.51436 16.1258 10 17C10.4856 17.8742 10.4859 17.874 10.4862 17.8739C10.4863 17.8738 10.4866 17.8736 10.4869 17.8735C10.4875 17.8731 10.4882 17.8727 10.489 17.8723C10.4907 17.8713 10.4929 17.8701 10.4957 17.8686C10.5012 17.8655 10.5089 17.8611 10.5186 17.8556C10.5381 17.8446 10.5658 17.8288 10.6013 17.8083C10.6724 17.7672 10.7745 17.7074 10.9032 17.6297C11.1606 17.4745 11.525 17.2477 11.9609 16.9571C12.8309 16.3771 13.9953 15.5366 15.1644 14.4974C17.4384 12.4761 20 9.46684 20 6.00003H18ZM10 17C10.4856 16.1258 10.4858 16.1259 10.486 16.126C10.486 16.126 10.4861 16.1261 10.4861 16.1261C10.4861 16.1261 10.486 16.126 10.4858 16.1259C10.4852 16.1256 10.4842 16.125 10.4826 16.1242C10.4795 16.1224 10.4743 16.1195 10.467 16.1153C10.4524 16.1071 10.4296 16.0941 10.3992 16.0765C10.3384 16.0414 10.2471 15.9879 10.1298 15.9172C9.89493 15.7755 9.55625 15.5648 9.14845 15.293C8.33089 14.7479 7.2453 13.9634 6.16436 13.0026C3.93835 11.024 2 8.53324 2 6.00003H0C0 9.46684 2.56165 12.4761 4.83564 14.4974C6.0047 15.5366 7.16911 16.3771 8.03905 16.9571C8.475 17.2477 8.83945 17.4745 9.09679 17.6297C9.22552 17.7074 9.32762 17.7672 9.39865 17.8083C9.43417 17.8288 9.46194 17.8446 9.48141 17.8556C9.49114 17.8611 9.4988 17.8655 9.50432 17.8686C9.50707 17.8701 9.50929 17.8713 9.51097 17.8723C9.51181 17.8727 9.51251 17.8731 9.51308 17.8735C9.51336 17.8736 9.51368 17.8738 9.51382 17.8739C9.51411 17.874 9.51436 17.8742 10 17Z" fill="#222222"/>
</svg>
