<svg width="16" height="20" viewBox="0 0 16 20" fill="none" xmlns="http://www.w3.org/2000/svg">
<path d="M14 19C14 19.5523 14.4477 20 15 20C15.5523 20 16 19.5523 16 19H14ZM0 19C0 19.5523 0.447715 20 1 20C1.55228 20 2 19.5523 2 19H0ZM16 19C16 14.5817 12.4183 11 8 11V13C11.3137 13 14 15.6863 14 19H16ZM8 11C3.58172 11 0 14.5817 0 19H2C2 15.6863 4.68629 13 8 13V11ZM8 8C6.34315 8 5 6.65685 5 5H3C3 7.76142 5.23858 10 8 10V8ZM5 5C5 3.34315 6.34315 2 8 2V0C5.23858 0 3 2.23858 3 5H5ZM8 2C9.65685 2 11 3.34315 11 5H13C13 2.23858 10.7614 0 8 0V2ZM11 5C11 6.65685 9.65685 8 8 8V10C10.7614 10 13 7.76142 13 5H11Z" fill="#222222"/>
</svg>
