<svg width="16" height="16" viewBox="0 0 16 16" fill="none" xmlns="http://www.w3.org/2000/svg">
<g clip-path="url(#clip0_129_1497)">
<g clip-path="url(#clip1_129_1497)">
<path d="M7.29113 13.9133C3.62446 13.9133 0.666687 10.9506 0.666687 7.30225C0.666687 3.65395 3.62446 0.666748 7.29113 0.666748C10.9578 0.666748 13.9156 3.62946 13.9156 7.30225C13.9156 8.47754 13.5978 9.62835 13.0356 10.6322C12.84 10.975 12.3756 11.0975 12.0334 10.9016C11.6911 10.7057 11.5689 10.2405 11.7645 9.89769C12.2289 9.11416 12.4489 8.23269 12.4489 7.30225C12.4245 4.43748 10.1267 2.13586 7.29113 2.13586C4.45558 2.13586 2.13335 4.43748 2.13335 7.30225C2.13335 10.167 4.43113 12.4686 7.29113 12.4686C8.19558 12.4686 9.10002 12.2238 9.88224 11.7831C10.2245 11.5872 10.6889 11.7096 10.8845 12.0524C11.08 12.3952 10.9578 12.8604 10.6156 13.0563C9.58891 13.6194 8.44002 13.9133 7.29113 13.9133Z" fill="#787878"/>
<path d="M7.29113 13.9133C3.62446 13.9133 0.666687 10.9506 0.666687 7.30225C0.666687 6.12696 0.984465 4.97615 1.54669 3.97226C1.74224 3.62946 2.20669 3.50704 2.54891 3.70292C2.89113 3.8988 3.01335 4.36402 2.8178 4.70681C2.3778 5.49034 2.13335 6.3963 2.13335 7.30225C2.13335 10.1425 4.43113 12.4686 7.29113 12.4686C10.1511 12.4686 12.4489 10.167 12.4489 7.30225C12.4489 4.43748 10.1267 2.13586 7.29113 2.13586C6.38669 2.13586 5.48224 2.38072 4.70002 2.82145C4.3578 3.01733 3.89335 2.89491 3.6978 2.55211C3.50224 2.20932 3.62446 1.7441 3.96669 1.54822C4.96891 0.985056 6.1178 0.666748 7.29113 0.666748C10.9334 0.666748 13.8911 3.62946 13.8911 7.30225C13.8911 10.975 10.9334 13.9133 7.29113 13.9133Z" fill="#787878"/>
<path d="M14.6 15.3334C14.4044 15.3334 14.2333 15.2599 14.0867 15.113L10.9822 12.0034C10.6889 11.7096 10.6889 11.2443 10.9822 10.975C11.2755 10.6812 11.74 10.6812 12.0089 10.975L15.1133 14.0846C15.4067 14.3785 15.4067 14.8437 15.1133 15.113C14.9667 15.2599 14.7711 15.3334 14.6 15.3334Z" fill="#787878"/>
</g>
</g>
<defs>
<clipPath id="clip0_129_1497">
<rect width="16" height="16" fill="white"/>
</clipPath>
<clipPath id="clip1_129_1497">
<rect width="14.6667" height="14.6667" fill="white" transform="translate(0.666687 0.666748)"/>
</clipPath>
</defs>
</svg>
